<svg xmlns="http://www.w3.org/2000/svg" width="12" height="12" viewBox="0 0 12 12">
  <g id="component_clipart_time" transform="translate(-15.7 -15.7)">
    <path id="Path_1338" data-name="Path 1338" d="M21.7,15.7a6,6,0,1,0,6,6,6,6,0,0,0-6-6Zm0,10.6a4.6,4.6,0,1,1,4.6-4.6A4.6,4.6,0,0,1,21.7,26.3Z" transform="translate(0 0)" fill="#9ecbda"/>
    <path id="Path_1339" data-name="Path 1339" d="M48.462,35.3H46.984V33.657a.657.657,0,0,0-1.314,0v2.3a.657.657,0,0,0,.657.657h2.135a.657.657,0,0,0,0-1.314Z" transform="translate(-24.586 -14.186)" fill="#9ecbda"/>
  </g>
</svg>
