<svg xmlns="http://www.w3.org/2000/svg" width="10.41" height="12" viewBox="0 0 10.41 12">
  <g id="component_clipart_location" transform="translate(-31 -31)">
    <g id="Group_1132" data-name="Group 1132" transform="translate(31 31)">
      <path id="Path_1335" data-name="Path 1335" d="M35.549,42.744a.971.971,0,0,0,1.315,0c.026-.024,2.732-2.566,3.022-2.857a5.205,5.205,0,1,0-7.361,0C32.812,40.173,35.522,42.72,35.549,42.744Zm-1.862-4.021a3.561,3.561,0,1,1,5.037,0c-.277.277-2.418,2.294-2.418,2.294a.146.146,0,0,1-.2,0S33.959,39,33.687,38.723Zm2.518-.875a1.644,1.644,0,1,0-1.644-1.644A1.644,1.644,0,0,0,36.205,37.849Z" transform="translate(-31 -31)" fill="#9ecbda" fill-rule="evenodd"/>
    </g>
  </g>
</svg>
