<svg xmlns="http://www.w3.org/2000/svg" width="10.5" height="12" viewBox="0 0 10.5 12">
  <g id="Group_1208" data-name="Group 1208" transform="translate(-21 -410)">
    <path id="Path_1353" data-name="Path 1353" d="M7.3,1034.413H8.373v.729a1.3,1.3,0,0,1,.708.711l-.994.4a.277.277,0,0,0-.328-.144.218.218,0,0,0-.186.252.257.257,0,0,0,.283.192h.038a1.262,1.262,0,0,1,.478,2.439v.728H7.3v-.73a1.306,1.306,0,0,1-.709-.712l.994-.4a.278.278,0,0,0,.329.145.22.22,0,0,0,.186-.254.258.258,0,0,0-.283-.191H7.78a1.262,1.262,0,0,1-.478-2.439Z" transform="translate(16.702 -621.539)" fill="#9ecbda" fill-rule="evenodd"/>
    <path id="Path_1354" data-name="Path 1354" d="M4.5,1028.365a2.489,2.489,0,0,0-2.5,2.463v8.061l1.5,1.473,1-.981,1,.981,1-.981,1,.981,1.5-1.473L9,1032.363h3.5v-1.5a2.673,2.673,0,0,0-.561-1.63,2.164,2.164,0,0,0-1.639-.871c-1.888-.008-3.869,0-5.8,0Zm5.731,1h.011a1.1,1.1,0,0,1,.9.483,1.786,1.786,0,0,1,.355,1.014v.5H9v-.537a1.661,1.661,0,0,1,.342-1.067,1.09,1.09,0,0,1,.888-.4Zm-5.731.006H8.437a2.687,2.687,0,0,0-.44,1.461l-.006,7.645-.5.49-1-.982-1,.982-1-.982-1,.982-.5-.49v-7.642a1.516,1.516,0,0,1,1.5-1.463Z" transform="translate(19 -618.362)" fill="#9ecbda" fill-rule="evenodd"/>
  </g>
</svg>
